<svg width="24" height="24" viewBox="0 0 40 40" fill="none" xmlns="http://www.w3.org/2000/svg">
<g id="Brand Icons=LinkedIn" clip-path="url(#clip0_5_1555)">
<path id="Union" fill-rule="evenodd" clip-rule="evenodd" d="M0 4.80333C0 2.15167 2.15167 0 4.80333 0C7.45333 0 9.605 2.15167 9.60667 4.80333C9.60667 7.455 7.455 9.65167 4.80333 9.65167C2.15167 9.65167 0 7.455 0 4.80333ZM39.9901 40.0001V39.9984H40.0001V25.3284C40.0001 18.1517 38.4551 12.6234 30.0651 12.6234C26.0318 12.6234 23.3251 14.8367 22.2201 16.9351H22.1034V13.2934H14.1484V39.9984H22.4318V26.7751C22.4318 23.2934 23.0918 19.9267 27.4034 19.9267C31.6518 19.9267 31.7151 23.9001 31.7151 26.9984V40.0001H39.9901ZM0.660156 13.2949H8.95349V39.9999H0.660156V13.2949Z" fill="#0077B5"/>
</g>
<defs>
<clipPath id="clip0_5_1555">
<rect width="40" height="40" fill="white"/>
</clipPath>
</defs>
</svg>
