<svg width="21" height="24" viewBox="0 0 21 24" fill="none" xmlns="http://www.w3.org/2000/svg">
<g id="Icon">
<path id="Vector" d="M18.7469 4.39962L6.7867 1.41762C5.54229 1.10735 4.28199 1.86462 3.97173 3.10902L0.561826 16.7854C0.251562 18.0298 1.00883 19.2901 2.25323 19.6004L14.2134 22.5824C15.4578 22.8926 16.7181 22.1354 17.0284 20.891L20.4383 7.21459C20.7485 5.97019 19.9913 4.70988 18.7469 4.39962Z" stroke="#1D1D1F"/>
<path id="Vector_2" d="M17.4116 8.05514L6.30622 5.28625C6.05449 5.22349 5.79955 5.37667 5.73678 5.6284L5.58955 6.21894C5.52678 6.47067 5.67997 6.72561 5.9317 6.78838L17.0371 9.55726C17.2888 9.62003 17.5438 9.46684 17.6065 9.21511L17.7538 8.62458C17.8165 8.37285 17.6633 8.1179 17.4116 8.05514Z" fill="#232224"/>
<path id="Vector_3" d="M16.5672 11.5655L5.46184 8.79663C5.21011 8.73386 4.95516 8.88705 4.8924 9.13878L4.74516 9.72932C4.6824 9.98104 4.83559 10.236 5.08732 10.2988L16.1927 13.0676C16.4444 13.1304 16.6994 12.9772 16.7622 12.7255L16.9094 12.135C16.9722 11.8832 16.819 11.6283 16.5672 11.5655Z" fill="#232224"/>
<path id="Vector_4" d="M9.68645 13.3558L4.58954 12.085C4.33781 12.0222 4.08287 12.1754 4.0201 12.4271L3.87287 13.0176C3.8101 13.2694 3.96329 13.5243 4.21502 13.5871L9.31193 14.8579C9.56366 14.9206 9.81861 14.7675 9.88137 14.5157L10.0286 13.9252C10.0914 13.6735 9.93818 13.4185 9.68645 13.3558Z" fill="#232224"/>
</g>
</svg>
